<?xml version="1.0" encoding="iso-8859-1"?>
<!-- Generator: Adobe Illustrator 19.0.0, SVG Export Plug-In . SVG Version: 6.00 Build 0)  -->
<svg version="1.1" id="Layer_1" xmlns="http://www.w3.org/2000/svg" xmlns:xlink="http://www.w3.org/1999/xlink" x="0px" y="0px"
	 viewBox="0 0 512 512" style="enable-background:new 0 0 512 512;" xml:space="preserve">
<path style="fill:#CCCCCC;" d="M446.581,0v512H65.419V0H446.581z"/>
<path style="fill:#5FC9ED;" d="M244.034,308.441c16.056,0,29.053,13.009,29.053,29.053c0,16.043-12.997,29.053-29.053,29.053
	c-16.043,0-29.053-13.009-29.053-29.053C214.981,321.451,227.99,308.441,244.034,308.441z"/>
<path style="fill:#E6E6E6;" d="M321.963,214.709l-31.834,19.634l-71.835,44.325l51.961-84.225
	c-8.508-1.555-17.27-2.364-26.221-2.364c-80.306,0-145.403,65.109-145.403,145.415c0,62.568,39.521,115.907,94.959,136.401
	c15.715,5.828,32.706,9.002,50.444,9.002c80.306,0,145.415-65.097,145.415-145.403C389.449,285.862,362.533,240.5,321.963,214.709z
	 M244.034,366.547c-2.364,0-4.652-0.278-6.852-0.822c-12.744-3.072-22.2-14.552-22.2-28.231c0-16.043,13.009-29.053,29.053-29.053
	c5.348,0,10.342,1.441,14.64,3.957c8.622,5.032,14.413,14.387,14.413,25.096C273.086,353.538,260.09,366.547,244.034,366.547z"/>
<g>
	<path style="fill:#5FC9ED;" d="M244.034,84.667v45.742c0,12.442-10.086,22.528-22.528,22.528H98.631v-81.33
		c0-8.003,3.249-15.247,8.496-20.494s12.491-8.496,20.494-8.496c16.018,0,28.989,12.984,28.989,28.989v13.06H244.034z"/>
	<path style="fill:#5FC9ED;" d="M386.111,110.863c8.787,8.774,13.022,20.114,13.022,31.366c0,14.741-7.27,29.356-21.113,37.89
		l-56.057,34.59l-103.669,63.959l51.961-84.225l46.588-75.489C331.913,94.529,365.82,90.572,386.111,110.863z"/>
</g>
<g>
	<path style="fill:#F2F2F2;" d="M389.449,337.494c0,80.306-65.109,145.403-145.415,145.403c-17.738,0-34.729-3.173-50.444-9.002
		l43.592-108.17c2.2,0.544,4.488,0.822,6.852,0.822c16.056,0,29.053-13.009,29.053-29.053c0-10.708-5.79-20.064-14.413-25.096
		l10.304-25.563l21.151-52.492l31.834-19.634C362.533,240.5,389.449,285.862,389.449,337.494z"/>
	<path style="fill:#F2F2F2;" d="M384.341,60.659h-208.59c-5.237,0-9.482-4.245-9.482-9.482s4.245-9.482,9.482-9.482h208.59
		c5.238,0,9.482,4.245,9.482,9.482S389.578,60.659,384.341,60.659z"/>
</g>
<g>
	<circle style="fill:#808080;" cx="417.193" cy="482.935" r="12.01"/>
	<circle style="fill:#808080;" cx="94.807" cy="482.935" r="12.01"/>
	<circle style="fill:#808080;" cx="417.193" cy="29.065" r="12.01"/>
	<circle style="fill:#808080;" cx="94.807" cy="29.065" r="12.01"/>
</g>
<g>
	<circle style="fill:#5DB2DB;" cx="128.31" cy="72.392" r="12.01"/>
	<circle style="fill:#5DB2DB;" cx="357.141" cy="140.029" r="12.01"/>
</g>
<circle style="fill:#B3B3B3;" cx="365.991" cy="217.149" r="12.01"/>
<circle style="fill:#5DB2DB;" cx="215.544" cy="125.49" r="12.01"/>
<g>
</g>
<g>
</g>
<g>
</g>
<g>
</g>
<g>
</g>
<g>
</g>
<g>
</g>
<g>
</g>
<g>
</g>
<g>
</g>
<g>
</g>
<g>
</g>
<g>
</g>
<g>
</g>
<g>
</g>
</svg>
