<?xml version="1.0" encoding="iso-8859-1"?>
<!-- Generator: Adobe Illustrator 19.0.0, SVG Export Plug-In . SVG Version: 6.00 Build 0)  -->
<svg version="1.1" id="Layer_1" xmlns="http://www.w3.org/2000/svg" xmlns:xlink="http://www.w3.org/1999/xlink" x="0px" y="0px"
	 viewBox="0 0 512 512" style="enable-background:new 0 0 512 512;" xml:space="preserve">
<path style="fill:#CCCCCC;" d="M440.212,9.143v493.713H72.664V9.143H440.212z"/>
<path style="fill:#91DAF5;" d="M244.899,306.568c15.483,0,28.015,12.545,28.015,28.015c0,15.47-12.532,28.015-28.015,28.015
	c-15.47,0-28.015-12.545-28.015-28.015C216.884,319.113,229.429,306.568,244.899,306.568z"/>
<path style="fill:#E6E6E6;" d="M320.045,216.184l-30.697,18.933l-69.27,42.742l50.105-81.217c-8.205-1.499-16.653-2.28-25.284-2.28
	c-77.438,0-140.209,62.784-140.209,140.221c0,60.334,38.109,111.768,91.567,131.529c15.153,5.62,31.538,8.68,48.642,8.68
	c77.438,0,140.222-62.772,140.222-140.209C385.121,284.795,359.166,241.054,320.045,216.184z M244.899,362.599
	c-2.28,0-4.486-0.268-6.608-0.792c-12.289-2.962-21.407-14.032-21.407-27.223c0-15.47,12.545-28.015,28.015-28.015
	c5.157,0,9.972,1.39,14.117,3.816c8.314,4.852,13.898,13.873,13.898,24.199C272.914,350.054,260.382,362.599,244.899,362.599z"/>
<g>
	<path style="fill:#91DAF5;" d="M244.899,90.787v65.832H104.69V78.193c0-7.717,3.133-14.702,8.192-19.762
		c5.059-5.059,12.045-8.192,19.762-8.192c15.446,0,27.954,12.52,27.954,27.954v12.593H244.899z"/>
	<path style="fill:#91DAF5;" d="M381.903,116.047c8.473,8.461,12.557,19.396,12.557,30.246c0,14.215-7.01,28.308-20.359,36.537
		l-54.055,33.355l-99.967,61.675l50.105-81.217l44.924-72.793C329.639,100.296,362.336,96.48,381.903,116.047z"/>
</g>
<path style="fill:#F2F2F2;" d="M385.121,334.584c0,77.438-62.784,140.209-140.221,140.209c-17.104,0-33.489-3.06-48.642-8.68
	l42.035-104.307c2.121,0.524,4.328,0.792,6.608,0.792c15.483,0,28.015-12.545,28.015-28.015c0-10.326-5.583-19.347-13.898-24.199
	l9.936-24.65l20.396-50.617l30.697-18.933C359.166,241.054,385.121,284.795,385.121,334.584z"/>
<path d="M439.773,46.299c5.051,0,9.143-4.094,9.143-9.143V9.143c0-5.05-4.093-9.143-9.143-9.143H72.225
	c-5.05,0-9.143,4.094-9.143,9.143v493.713c0,5.05,4.094,9.143,9.143,9.143h367.549c5.051,0,9.143-4.094,9.143-9.143V67.634
	c0-5.05-4.093-9.143-9.143-9.143c-5.051,0-9.143,4.094-9.143,9.143v426.08H81.369V18.287h349.263v18.869
	C430.63,42.205,434.724,46.299,439.773,46.299z"/>
<path d="M281.619,334.584c0-20.49-16.669-37.158-37.158-37.158s-37.158,16.669-37.158,37.158c0,20.49,16.669,37.158,37.158,37.158
	C264.95,371.742,281.619,355.073,281.619,334.584z M225.589,334.584c0-10.406,8.465-18.872,18.872-18.872
	s18.872,8.465,18.872,18.872c0,10.406-8.465,18.872-18.872,18.872S225.589,344.99,225.589,334.584z"/>
<path d="M403.164,146.293c0-13.862-5.412-26.902-15.235-36.712c-11.316-11.316-26.924-16.741-42.814-14.884
	c-15.891,1.857-29.824,10.733-38.226,24.35l-41.715,67.606c-6.834-0.95-13.776-1.435-20.713-1.435
	c-31.413,0-61.469,9.643-86.92,27.888c-4.105,2.942-5.046,8.654-2.104,12.758c1.786,2.491,4.591,3.817,7.439,3.817
	c1.845,0,3.706-0.556,5.319-1.713c22.325-16.004,48.698-24.464,76.266-24.464c3.36,0,6.716,0.156,10.06,0.411l-42.663,69.142
	c-2.225,3.606-1.68,8.269,1.317,11.266c1.764,1.764,4.105,2.678,6.469,2.678c1.652,0,3.314-0.446,4.798-1.362l94.966-58.589
	c35.248,24.558,56.133,64.337,56.133,107.532c0,72.27-58.801,131.066-131.078,131.066c-72.27,0-131.066-58.796-131.066-131.066
	c0-29.035,9.296-56.541,26.882-79.543c3.067-4.012,2.302-9.75-1.71-12.816c-4.01-3.066-9.75-2.302-12.816,1.71
	c-20.047,26.219-30.642,57.565-30.642,90.65c0,82.353,67,149.353,149.353,149.353c82.36,0,149.365-67,149.365-149.353
	c0-46.584-21.303-89.688-57.628-117.892l42.263-26.078C393.929,181.076,403.164,164.509,403.164,146.293z M368.859,175.048
	l-121.174,74.764L322.45,128.65c5.449-8.831,14.483-14.587,24.786-15.79c1.331-0.155,2.658-0.232,3.975-0.232
	c8.896,0,17.398,3.494,23.792,9.888c6.367,6.36,9.875,14.804,9.875,23.776C384.877,158.116,378.891,168.864,368.859,175.048z"/>
<path d="M132.205,41.096c-9.903,0-19.217,3.861-26.227,10.871S95.108,68.292,95.108,78.193v78.425c0,5.05,4.094,9.143,9.143,9.143
	h140.209c5.05,0,9.143-4.094,9.143-9.143V90.787c0-5.05-4.093-9.143-9.143-9.143h-75.158v-3.45
	C169.303,57.738,152.661,41.096,132.205,41.096z M235.317,99.93v47.545H113.395V78.193c0-5.018,1.958-9.741,5.514-13.297
	c3.556-3.556,8.279-5.514,13.297-5.514c10.372,0,18.811,8.439,18.811,18.811v12.593c0,5.05,4.094,9.143,9.143,9.143H235.317z"/>
<path d="M395.605,49.349h-201.14c-5.05,0-9.143,4.094-9.143,9.143s4.094,9.143,9.143,9.143h201.14c5.051,0,9.143-4.094,9.143-9.143
	S400.655,49.349,395.605,49.349z"/>
<g>
</g>
<g>
</g>
<g>
</g>
<g>
</g>
<g>
</g>
<g>
</g>
<g>
</g>
<g>
</g>
<g>
</g>
<g>
</g>
<g>
</g>
<g>
</g>
<g>
</g>
<g>
</g>
<g>
</g>
</svg>
