<?xml version="1.0" encoding="iso-8859-1"?>
<!-- Generator: Adobe Illustrator 19.0.0, SVG Export Plug-In . SVG Version: 6.00 Build 0)  -->
<svg version="1.1" id="Capa_1" xmlns="http://www.w3.org/2000/svg" xmlns:xlink="http://www.w3.org/1999/xlink" x="0px" y="0px"
	 viewBox="0 0 512 512" style="enable-background:new 0 0 512 512;" xml:space="preserve">
<g>
	<path style="fill:#C9CCD6;" d="M462,66h-70c-8.284,0-15-6.716-15-15s6.716-15,15-15h70c8.284,0,15,6.716,15,15S470.284,66,462,66z"
		/>
	<path style="fill:#C9CCD6;" d="M462,476h-70c-8.284,0-15-6.716-15-15s6.716-15,15-15h70c8.284,0,15,6.716,15,15
		S470.284,476,462,476z"/>
	<path style="fill:#C9CCD6;" d="M462,148h-70c-8.284,0-15-6.716-15-15s6.716-15,15-15h70c8.284,0,15,6.716,15,15
		S470.284,148,462,148z"/>
	<path style="fill:#C9CCD6;" d="M462,394h-70c-8.284,0-15-6.716-15-15s6.716-15,15-15h70c8.284,0,15,6.716,15,15
		S470.284,394,462,394z"/>
	<path style="fill:#C9CCD6;" d="M462,230h-70c-8.284,0-15-6.716-15-15s6.716-15,15-15h70c8.284,0,15,6.716,15,15
		S470.284,230,462,230z"/>
	<path style="fill:#C9CCD6;" d="M462,312h-70c-8.284,0-15-6.716-15-15s6.716-15,15-15h70c8.284,0,15,6.716,15,15
		S470.284,312,462,312z"/>
</g>
<g>
	<path style="fill:#F0F4FF;" d="M120,66H50c-8.284,0-15-6.716-15-15s6.716-15,15-15h70c8.284,0,15,6.716,15,15S128.284,66,120,66z"
		/>
	<path style="fill:#F0F4FF;" d="M120,476H50c-8.284,0-15-6.716-15-15s6.716-15,15-15h70c8.284,0,15,6.716,15,15S128.284,476,120,476
		z"/>
	<path style="fill:#F0F4FF;" d="M120,148H50c-8.284,0-15-6.716-15-15s6.716-15,15-15h70c8.284,0,15,6.716,15,15S128.284,148,120,148
		z"/>
	<path style="fill:#F0F4FF;" d="M120,394H50c-8.284,0-15-6.716-15-15s6.716-15,15-15h70c8.284,0,15,6.716,15,15S128.284,394,120,394
		z"/>
	<path style="fill:#F0F4FF;" d="M120,230H50c-8.284,0-15-6.716-15-15s6.716-15,15-15h70c8.284,0,15,6.716,15,15S128.284,230,120,230
		z"/>
	<path style="fill:#F0F4FF;" d="M120,312H50c-8.284,0-15-6.716-15-15s6.716-15,15-15h70c8.284,0,15,6.716,15,15S128.284,312,120,312
		z"/>
</g>
<path style="fill:#606267;" d="M392,0H120c-8.284,0-15,6.716-15,15v482c0,8.284,6.716,15,15,15h272c8.284,0,15-6.716,15-15V15
	C407,6.716,400.284,0,392,0z"/>
<path style="fill:#3E424D;" d="M392,0H256v512h136c8.284,0,15-6.716,15-15V15C407,6.716,400.284,0,392,0z"/>
<path style="fill:#6A82A1;" d="M256,321c-8.284,0-15-6.716-15-15V206c0-8.284,6.716-15,15-15s15,6.716,15,15v100
	C271,314.284,264.284,321,256,321z"/>
<g>
	<path style="fill:#15BDFF;" d="M256,51c-30.327,0-55,24.673-55,55s24.673,55,55,55s55-24.673,55-55S286.327,51,256,51z"/>
	<path style="fill:#15BDFF;" d="M256,351c-30.327,0-55,24.673-55,55s24.673,55,55,55s55-24.673,55-55S286.327,351,256,351z"/>
</g>
<path style="fill:#52677B;" d="M256,191v130c8.284,0,15-6.716,15-15V206C271,197.716,264.284,191,256,191z"/>
<g>
	<path style="fill:#3E9BE3;" d="M256,51v110c30.327,0,55-24.673,55-55S286.327,51,256,51z"/>
	<path style="fill:#3E9BE3;" d="M256,351v110c30.327,0,55-24.673,55-55S286.327,351,256,351z"/>
</g>
<g>
</g>
<g>
</g>
<g>
</g>
<g>
</g>
<g>
</g>
<g>
</g>
<g>
</g>
<g>
</g>
<g>
</g>
<g>
</g>
<g>
</g>
<g>
</g>
<g>
</g>
<g>
</g>
<g>
</g>
</svg>
