<?xml version="1.0" encoding="iso-8859-1"?>
<!-- Generator: Adobe Illustrator 19.0.0, SVG Export Plug-In . SVG Version: 6.00 Build 0)  -->
<svg version="1.1" id="Layer_1" xmlns="http://www.w3.org/2000/svg" xmlns:xlink="http://www.w3.org/1999/xlink" x="0px" y="0px"
	 viewBox="0 0 512 512" style="enable-background:new 0 0 512 512;" xml:space="preserve">
<polygon style="fill:#A0D468;" points="377.125,10 15,383.781 111,470 473,101.328 "/>
<polygon style="fill:#FFCE54;" points="479,106.672 101,470 131,494 503,127.344 "/>
<g>
	<rect x="88.34" y="367.02" style="fill:#656D78;" width="35.33" height="34.656"/>
	<rect x="149.34" y="304.02" style="fill:#656D78;" width="33.664" height="36.33"/>
	<rect x="238" y="211.66" style="fill:#656D78;" width="36.656" height="38.672"/>
	<rect x="295.67" y="153" style="fill:#656D78;" width="40.33" height="37.672"/>
	<rect x="359" y="92.67" style="fill:#656D78;" width="35.34" height="38.33"/>
</g>
<path d="M383.781,0L0,383.781L128.227,512L512,128.219L383.781,0z M466.719,128.25l7.563-7.563l7.563,7.531l-0.031,0.031
	C477.641,124.094,470.891,124.094,466.719,128.25z M325.781,284.281c-4.172-4.156-10.938-4.156-15.094,0s-4.156,10.922,0,15.094l0,0
	l-7.531,7.531c-4.188-4.156-10.938-4.156-15.094,0c-4.156,4.172-4.156,10.922,0,15.094l-8.984,8.969l-7.547-7.531l61.781-61.781
	c-4.156,4.172-4.156,10.922,0,15.094L325.781,284.281z M256.445,353.609c-4.156-4.172-10.906-4.172-15.07-0.016l15.07-15.063
	l7.547,7.531L256.445,353.609z M233.82,376.234c-4.164-4.172-10.922-4.172-15.086,0s-4.164,10.922,0,15.078l0,0l-7.539,7.547
	c-4.164-4.172-10.914-4.172-15.086,0l45.242-45.234c-4.156,4.156-4.148,10.906,0.008,15.063l0,0L233.82,376.234z M188.563,421.5
	c-4.156-4.172-10.906-4.172-15.07-0.031l22.609-22.594c-4.156,4.156-4.156,10.906,0.008,15.063L188.563,421.5z M383.781,30.172
	l22.688,22.672c-3.313,4.188-3.031,10.281,0.828,14.156c3.859,3.859,9.953,4.125,14.141,0.828l0.125,0.109
	c-3.313,4.188-3.047,10.281,0.813,14.141c3.875,3.859,9.969,4.141,14.156,0.828l22.672,22.688l-202.758,202.75l-15.078-15.078
	h-0.008l0,0c-4.164-4.172-10.914-4.172-15.078,0c-4.172,4.172-4.172,10.922,0,15.078l0,0l0,0l15.078,15.094L105.602,459.203
	l-22.633-22.625c4.164-4.172,4.164-10.922,0-15.078c-4.164-4.172-10.914-4.172-15.086,0l0,0l0,0l0,0
	c4.172-4.172,4.172-10.938,0-15.094c-4.164-4.156-10.914-4.156-15.078,0l-22.633-22.625L383.781,30.172z M120.688,474.281
	l52.781-52.781c-4.156,4.172-4.148,10.906,0.008,15.078l-7.539,7.547c-4.164-4.172-10.922-4.172-15.086,0
	c-4.164,4.156-4.164,10.906,0,15.078l0,0l-7.539,7.547c-4.164-4.172-10.922-4.172-15.086,0c-4.164,4.156-4.164,10.906,0,15.078l0,0
	L120.688,474.281z M371.031,239.031L371.031,239.031c-4.172-4.172-10.922-4.156-15.094,0c-4.156,4.156-4.156,10.906,0,15.094
	l-7.531,7.531c-4.172-4.156-10.906-4.156-15.094,0l45.25-45.25c-4.156,4.156-4.156,10.906,0,15.078L371.031,239.031z
	 M461.531,148.516c-4.156-4.172-10.906-4.172-15.078,0s-4.172,10.922,0,15.078l-7.547,7.563c-4.156-4.172-10.906-4.172-15.078,0
	c-4.172,4.156-4.172,10.906,0,15.078l-7.547,7.547c-4.156-4.172-10.906-4.172-15.094,0c-4.156,4.156-4.156,10.906,0,15.078
	l-7.531,7.547l0,0c-4.156-4.172-10.922-4.172-15.094,0l88.156-88.156c-4.156,4.172-4.156,10.922,0,15.094L461.531,148.516z"/>
<path d="M150.852,383.781l-45.25-45.25l-45.258,45.25l45.258,45.25L150.852,383.781z M105.602,368.688l15.078,15.094l-15.078,15.078
	l-15.086-15.078L105.602,368.688z"/>
<path d="M211.195,323.438l-45.258-45.25l-45.25,45.25l45.25,45.25L211.195,323.438z M165.938,308.344l15.086,15.094l-15.086,15.094
	l-15.086-15.094L165.938,308.344z"/>
<path d="M301.703,232.938l-45.258-45.266l-45.25,45.266l45.25,45.25L301.703,232.938z M256.445,217.844l15.086,15.094
	l-15.086,15.078l-15.078-15.078L256.445,217.844z"/>
<path d="M362.047,172.594l-45.266-45.25l-45.25,45.25l45.25,45.25L362.047,172.594z M316.781,157.5l15.094,15.094l-15.094,15.078
	l-15.078-15.078L316.781,157.5z"/>
<path d="M422.375,112.25L377.125,67l-45.25,45.25l45.25,45.25L422.375,112.25z M362.031,112.25l15.094-15.094l15.094,15.094
	l-15.094,15.094L362.031,112.25z"/>
<g>
</g>
<g>
</g>
<g>
</g>
<g>
</g>
<g>
</g>
<g>
</g>
<g>
</g>
<g>
</g>
<g>
</g>
<g>
</g>
<g>
</g>
<g>
</g>
<g>
</g>
<g>
</g>
<g>
</g>
</svg>
