<?xml version="1.0" encoding="iso-8859-1"?>
<!-- Generator: Adobe Illustrator 19.0.0, SVG Export Plug-In . SVG Version: 6.00 Build 0)  -->
<svg version="1.1" id="Capa_1" xmlns="http://www.w3.org/2000/svg" xmlns:xlink="http://www.w3.org/1999/xlink" x="0px" y="0px"
	 viewBox="0 0 512.665 512.665" style="enable-background:new 0 0 512.665 512.665;" xml:space="preserve">
<polygon style="fill:#FF7058;" points="458.667,83.515 430.933,55.781 439.467,47.248 392.533,0.315 0,392.848 46.933,439.781 
	55.467,431.248 83.2,458.981 74.667,467.515 119.467,512.315 512,119.781 467.2,74.981 "/>
<rect x="286.141" y="25.562" transform="matrix(0.7071 0.7071 -0.7071 0.7071 303.5185 -125.9058)" style="fill:#FFD15C;" width="35.2" height="555.728"/>
<g>
	
		<rect x="81.339" y="340.269" transform="matrix(-0.7071 0.7071 -0.7071 -0.7071 444.8896 591.1915)" style="fill:#40596B;" width="37.333" height="94.932"/>
	
		<rect x="127.838" y="292.672" transform="matrix(-0.7071 0.7071 -0.7071 -0.7071 490.6125 477.0591)" style="fill:#40596B;" width="37.333" height="94.932"/>
	
		<rect x="175.835" y="245.161" transform="matrix(-0.7071 0.7071 -0.7071 -0.7071 538.9528 362.0132)" style="fill:#40596B;" width="37.333" height="94.932"/>
	
		<rect x="368.166" y="52.355" transform="matrix(0.7071 -0.7071 0.7071 0.7071 42.7167 302.7686)" style="fill:#40596B;" width="37.333" height="94.932"/>
	
		<rect x="320.913" y="100.061" transform="matrix(0.7071 -0.7071 0.7071 0.7071 -4.8574 283.3285)" style="fill:#40596B;" width="37.333" height="94.932"/>
	
		<rect x="274.371" y="147.025" transform="matrix(0.7071 -0.7071 0.7071 0.7071 -51.6972 264.1737)" style="fill:#40596B;" width="37.333" height="94.932"/>
</g>
<g>
	
		<rect x="131.274" y="470.358" transform="matrix(-0.7071 0.7071 -0.7071 -0.7071 584.3555 712.5336)" style="fill:#FF7058;" width="26.666" height="13.867"/>
	
		<rect x="214.506" y="387.181" transform="matrix(-0.7071 0.7071 -0.7071 -0.7071 667.6271 511.6892)" style="fill:#FF7058;" width="26.666" height="13.867"/>
	
		<rect x="297.749" y="303.995" transform="matrix(-0.7071 0.7071 -0.7071 -0.7071 750.9093 310.8191)" style="fill:#FF7058;" width="26.666" height="13.867"/>
	
		<rect x="380.959" y="220.787" transform="matrix(-0.7071 0.7071 -0.7071 -0.7071 834.1218 109.9351)" style="fill:#FF7058;" width="26.666" height="13.867"/>
	
		<rect x="463.426" y="136.846" transform="matrix(-0.7071 0.7071 -0.7071 -0.7071 915.5467 -91.6742)" style="fill:#FF7058;" width="26.666" height="13.867"/>
</g>
<g>
</g>
<g>
</g>
<g>
</g>
<g>
</g>
<g>
</g>
<g>
</g>
<g>
</g>
<g>
</g>
<g>
</g>
<g>
</g>
<g>
</g>
<g>
</g>
<g>
</g>
<g>
</g>
<g>
</g>
</svg>
