<?xml version="1.0" encoding="iso-8859-1"?>
<!-- Generator: Adobe Illustrator 19.0.0, SVG Export Plug-In . SVG Version: 6.00 Build 0)  -->
<svg version="1.1" id="Capa_1" xmlns="http://www.w3.org/2000/svg" xmlns:xlink="http://www.w3.org/1999/xlink" x="0px" y="0px"
	 viewBox="0 0 512 512" style="enable-background:new 0 0 512 512;" xml:space="preserve">
<path style="fill:#303C42;" d="M508.875,173.792L395.958,60.875c-2-2-4.708-3.125-7.542-3.125c-2.833,0-5.563,1.125-7.563,3.135
	c-6.104,6.156-18.188,1.198-18.188-7.552c0-2.844,1.104-5.521,3.125-7.542c4.167-4.167,4.167-10.917,0-15.083L338.208,3.125
	c-4.167-4.167-10.917-4.167-15.083,0l-320,320c-4.167,4.167-4.167,10.917,0,15.083l27.583,27.583c2,2,4.708,3.125,7.542,3.125
	c2.833,0,5.563-1.125,7.563-3.135C51.938,359.635,64,364.594,64,373.333c0,2.844-1.104,5.521-3.125,7.542
	c-4.167,4.167-4.167,10.917,0,15.083l112.917,112.917c2.083,2.083,4.813,3.125,7.542,3.125c2.729,0,5.458-1.042,7.542-3.125
	l85.813-85.813c2-2,3.125-4.708,3.125-7.542s-1.125-5.542-3.125-7.542l-25.146-25.125c-1.458-1.469-1.458-3.844,0-5.302
	s3.833-1.458,5.292,0l25.146,25.135c4.167,4.167,10.917,4.167,15.083,0l213.813-213.813
	C513.042,184.708,513.042,177.958,508.875,173.792z"/>
<path style="fill:#7CB342;" d="M469.333,198.25l-24.458-24.458c-4.167-4.167-10.917-4.167-15.083,0
	c-4.167,4.167-4.167,10.917,0,15.083l24.458,24.458l-16.917,16.917l-24.458-24.458c-4.167-4.167-10.917-4.167-15.083,0
	c-4.167,4.167-4.167,10.917,0,15.083l24.458,24.458l-16.917,16.917l-24.458-24.458c-4.167-4.167-10.917-4.167-15.083,0
	c-4.167,4.167-4.167,10.917,0,15.083l24.458,24.458l-16.917,16.917l-24.458-24.458c-4.167-4.167-10.917-4.167-15.083,0
	c-4.167,4.167-4.167,10.917,0,15.083l24.458,24.458l-16.917,16.917l-24.458-24.458c-4.167-4.167-10.917-4.167-15.083,0
	c-4.167,4.167-4.167,10.917,0,15.083l24.458,24.458l-16.917,16.917l-24.458-24.458c-4.167-4.167-10.917-4.167-15.083,0
	c-4.167,4.167-4.167,10.917,0,15.083l24.458,24.458l-6.729,6.729l-17.604-17.594c-9.792-9.771-25.667-9.771-35.458,0
	c-9.771,9.771-9.771,25.667,0,35.448c0,0.01,0,0.01,0,0.01l17.604,17.594l-6.729,6.729l-24.458-24.458
	c-4.167-4.167-10.917-4.167-15.083,0c-4.167,4.167-4.167,10.917,0,15.083l24.458,24.458l-16.917,16.917l-24.458-24.458
	c-4.167-4.167-10.917-4.167-15.083,0c-4.167,4.167-4.167,10.917,0,15.083l24.458,24.458l-16.917,16.917l-99.104-99.115
	c2.021-4.25,3.104-8.948,3.104-13.802c0-17.646-14.354-32-32-32c-4.854,0-9.563,1.073-13.813,3.115L25.75,330.667L330.667,25.75
	l13.771,13.781c-2.021,4.25-3.104,8.948-3.104,13.802c0,17.646,14.354,32,32,32c4.854,0,9.563-1.073,13.813-3.115l99.104,99.115
	L469.333,198.25z"/>
<path style="fill:#303C42;" d="M156.875,269.792c-4.167-4.167-10.917-4.167-15.083,0l-53.333,53.333
	c-4.167,4.167-4.167,10.917,0,15.083l64,64c2.083,2.083,4.813,3.125,7.542,3.125c2.729,0,5.458-1.042,7.542-3.125l53.333-53.333
	c4.167-4.167,4.167-10.917,0-15.083L156.875,269.792z"/>
<rect x="127.714" y="301.44" transform="matrix(-0.7071 0.7071 -0.7071 -0.7071 501.8102 464.2073)" style="fill:#5C6671;" width="54.102" height="69.184"/>
<path style="fill:#303C42;" d="M247.542,179.125c-4.167-4.167-10.917-4.167-15.083,0l-53.333,53.333
	c-4.167,4.167-4.167,10.917,0,15.083l64,64c2.083,2.083,4.813,3.125,7.542,3.125s5.458-1.042,7.542-3.125l53.333-53.333
	c4.167-4.167,4.167-10.917,0-15.083L247.542,179.125z"/>
<rect x="218.301" y="210.749" transform="matrix(-0.7071 0.7071 -0.7071 -0.7071 592.3246 245.3329)" style="fill:#5C6671;" width="54.102" height="69.184"/>
<path style="fill:#303C42;" d="M323.125,88.458l-53.333,53.333c-4.167,4.167-4.167,10.917,0,15.083l64,64
	c2.083,2.083,4.813,3.125,7.542,3.125s5.458-1.042,7.542-3.125l53.333-53.333c4.167-4.167,4.167-10.917,0-15.083l-64-64
	C334.042,84.292,327.292,84.292,323.125,88.458z"/>
<rect x="308.968" y="120.073" transform="matrix(-0.7071 0.7071 -0.7071 -0.7071 682.9847 26.4284)" style="fill:#5C6671;" width="54.102" height="69.184"/>
<linearGradient id="SVGID_1_" gradientUnits="userSpaceOnUse" x1="-43.2625" y1="638.475" x2="-26.1437" y2="630.4937" gradientTransform="matrix(21.3333 0 0 -21.3333 996.3334 13791.667)">
	<stop  offset="0" style="stop-color:#FFFFFF;stop-opacity:0.2"/>
	<stop  offset="1" style="stop-color:#FFFFFF;stop-opacity:0"/>
</linearGradient>
<path style="fill:url(#SVGID_1_);" d="M508.875,173.792L395.958,60.875c-2-2-4.708-3.125-7.542-3.125
	c-2.833,0-5.563,1.125-7.563,3.135c-6.104,6.156-18.188,1.198-18.188-7.552c0-2.844,1.104-5.521,3.125-7.542
	c4.167-4.167,4.167-10.917,0-15.083L338.208,3.125c-4.167-4.167-10.917-4.167-15.083,0l-320,320c-4.167,4.167-4.167,10.917,0,15.083
	l27.583,27.583c2,2,4.708,3.125,7.542,3.125c2.833,0,5.563-1.125,7.563-3.135C51.938,359.635,64,364.594,64,373.333
	c0,2.844-1.104,5.521-3.125,7.542c-4.167,4.167-4.167,10.917,0,15.083l112.917,112.917c2.083,2.083,4.813,3.125,7.542,3.125
	c2.729,0,5.458-1.042,7.542-3.125l85.813-85.813c2-2,3.125-4.708,3.125-7.542s-1.125-5.542-3.125-7.542l-25.146-25.125
	c-1.458-1.469-1.458-3.844,0-5.302s3.833-1.458,5.292,0l25.146,25.135c4.167,4.167,10.917,4.167,15.083,0l213.813-213.813
	C513.042,184.708,513.042,177.958,508.875,173.792z"/>
<g>
</g>
<g>
</g>
<g>
</g>
<g>
</g>
<g>
</g>
<g>
</g>
<g>
</g>
<g>
</g>
<g>
</g>
<g>
</g>
<g>
</g>
<g>
</g>
<g>
</g>
<g>
</g>
<g>
</g>
</svg>
