<?xml version="1.0" encoding="iso-8859-1"?>
<!-- Generator: Adobe Illustrator 16.0.0, SVG Export Plug-In . SVG Version: 6.00 Build 0)  -->
<!DOCTYPE svg PUBLIC "-//W3C//DTD SVG 1.1//EN" "http://www.w3.org/Graphics/SVG/1.1/DTD/svg11.dtd">
<svg version="1.1" id="Capa_1" xmlns="http://www.w3.org/2000/svg" xmlns:xlink="http://www.w3.org/1999/xlink" x="0px" y="0px"
	 width="28.787px" height="28.787px" viewBox="0 0 28.787 28.787" style="enable-background:new 0 0 28.787 28.787;"
	 xml:space="preserve">
<g>
	<g>
		<path d="M0.065,7.247C0.029,7.247,0,7.275,0,7.312v0.561c0,0.036,0.029,0.065,0.065,0.065h1.511c0.036,0,0.065,0.029,0.065,0.064
			v13.475c0,0.037,0.029,0.065,0.064,0.065h0.541c0.035,0,0.064-0.028,0.064-0.065V7.311c0-0.036-0.029-0.065-0.064-0.065
			L0.065,7.247L0.065,7.247z"/>
		<path d="M16.479,10.011c-0.17-0.17-0.508-0.31-0.746-0.31h-2.475c-0.24,0-0.576,0.139-0.748,0.31l-1.748,1.749
			c-0.171,0.17-0.31,0.506-0.31,0.747v2.474c0,0.242,0.139,0.578,0.31,0.748l1.748,1.75c0.172,0.17,0.508,0.31,0.748,0.31h2.475
			c0.238,0,0.576-0.14,0.746-0.31l1.75-1.75c0.17-0.17,0.31-0.506,0.31-0.748v-2.474c0-0.241-0.14-0.577-0.31-0.747L16.479,10.011z
			 M18.033,14.98c0,0.021-0.008,0.047-0.012,0.07c-1.275-0.049-2.094-0.355-2.744-0.756c-0.045,0.062-0.098,0.118-0.154,0.169
			c0.521,0.522,1.238,0.993,2.287,1.369l-1.287,1.288c-0.025,0.025-0.068,0.052-0.115,0.076c-0.777-0.93-1.172-1.75-1.354-2.51
			c-0.053,0.008-0.105,0.017-0.158,0.017c-0.023,0-0.042-0.006-0.063-0.007c0.001,0.73,0.157,1.545,0.711,2.585h-1.885
			c-0.021,0-0.047-0.005-0.072-0.011c0.049-1.277,0.357-2.096,0.757-2.746c-0.062-0.043-0.116-0.096-0.167-0.153
			c-0.522,0.522-0.994,1.237-1.369,2.286L11.12,15.37c-0.025-0.024-0.051-0.067-0.076-0.115c0.93-0.776,1.749-1.168,2.51-1.352
			c-0.009-0.052-0.015-0.104-0.015-0.159c0-0.021,0.005-0.041,0.006-0.062c-0.731,0.002-1.547,0.156-2.588,0.712v-1.886
			c0-0.021,0.005-0.046,0.011-0.072c1.277,0.051,2.095,0.357,2.745,0.758c0.045-0.063,0.097-0.117,0.154-0.167
			c-0.524-0.525-1.239-0.994-2.288-1.37l1.287-1.287c0.027-0.025,0.067-0.052,0.116-0.076c0.776,0.929,1.17,1.75,1.352,2.51
			c0.055-0.009,0.106-0.017,0.161-0.017c0.021,0,0.038,0.005,0.059,0.007c0-0.73-0.155-1.546-0.71-2.586h1.888
			c0.019,0,0.043,0.006,0.07,0.011c-0.052,1.276-0.357,2.094-0.757,2.745c0.063,0.044,0.116,0.097,0.167,0.155
			c0.523-0.524,0.994-1.238,1.37-2.287l1.288,1.289c0.025,0.025,0.051,0.067,0.072,0.113c-0.928,0.777-1.745,1.17-2.508,1.353
			c0.01,0.053,0.017,0.105,0.017,0.16c0,0.021-0.007,0.04-0.007,0.061c0.73-0.001,1.546-0.156,2.587-0.711L18.033,14.98
			L18.033,14.98z"/>
		<circle cx="10.78" cy="17.459" r="0.327"/>
		<path d="M10.78,10.354c0.179,0,0.324-0.146,0.324-0.327c0-0.181-0.146-0.326-0.324-0.326c-0.183,0-0.327,0.146-0.327,0.326
			C10.453,10.207,10.597,10.354,10.78,10.354z"/>
		<circle cx="18.21" cy="17.459" r="0.327"/>
		<circle cx="18.21" cy="10.028" r="0.326"/>
		<path d="M28.139,7.247H3.448c-0.357,0-0.649,0.292-0.649,0.65V8.58c0.054-0.014,0.105-0.033,0.162-0.033h1.194
			c0.358,0,0.65,0.293,0.65,0.65v3.899c0,0.357-0.292,0.649-0.65,0.649H2.961c-0.057,0-0.108-0.019-0.162-0.033v1.173
			c0.054-0.014,0.105-0.033,0.162-0.033h2.9c0.357,0,0.649,0.293,0.649,0.65v2.982c0,0.357-0.292,0.65-0.649,0.65h-2.9
			c-0.057,0-0.108-0.019-0.162-0.033v0.492c0,0.356,0.292,0.649,0.649,0.649h4.549v0.649c0,0.356,0.292,0.649,0.649,0.649h11.696
			c0.357,0,0.649-0.292,0.649-0.649v-0.649h7.147c0.357,0,0.648-0.293,0.648-0.649V7.896C28.789,7.539,28.498,7.247,28.139,7.247z
			 M19.043,17.382c0,0.502-0.408,0.91-0.911,0.91h-7.276c-0.5,0-0.909-0.408-0.909-0.91v-7.277c0-0.501,0.409-0.91,0.909-0.91h7.276
			c0.503,0,0.911,0.409,0.911,0.91V17.382z"/>
	</g>
</g>
<g>
</g>
<g>
</g>
<g>
</g>
<g>
</g>
<g>
</g>
<g>
</g>
<g>
</g>
<g>
</g>
<g>
</g>
<g>
</g>
<g>
</g>
<g>
</g>
<g>
</g>
<g>
</g>
<g>
</g>
</svg>
