<?xml version="1.0" encoding="iso-8859-1"?>
<!-- Generator: Adobe Illustrator 19.0.0, SVG Export Plug-In . SVG Version: 6.00 Build 0)  -->
<svg version="1.1" id="Capa_1" xmlns="http://www.w3.org/2000/svg" xmlns:xlink="http://www.w3.org/1999/xlink" x="0px" y="0px"
	 viewBox="0 0 512 512" style="enable-background:new 0 0 512 512;" xml:space="preserve">
<path style="fill:#DFEAEF;" d="M115.995,425.189L86.81,396.004c-5.384-5.384-5.384-14.112,0-19.496l32.145-32.145l48.681,48.681
	l-32.145,32.145C130.108,430.573,121.379,430.573,115.995,425.189z"/>
<path style="fill:#BFCFD6;" d="M101.403,410.597l14.593,14.593c5.384,5.384,14.112,5.384,19.496,0l32.145-32.145l-24.34-24.34
	L101.403,410.597z"/>
<path style="fill:#A7AEEE;" d="M49.573,274.98l-13.509-13.509c-3.557-3.557-3.557-9.325,0-12.882l34.927-34.927l26.392,26.392
	L62.455,274.98C58.898,278.538,53.13,278.538,49.573,274.98z"/>
<path style="fill:#929DDD;" d="M42.818,268.225l6.755,6.755c3.557,3.557,9.325,3.557,12.882,0l34.926-34.926l-13.196-13.196
	L42.818,268.225z"/>
<path style="fill:#A7AEEE;" d="M250.529,475.936l-13.509-13.509c-3.557-3.557-3.557-9.325,0-12.882l34.927-34.927l26.392,26.392
	l-34.927,34.927C259.854,479.494,254.086,479.494,250.529,475.936z"/>
<path style="fill:#929DDD;" d="M243.774,469.182l6.755,6.755c3.557,3.557,9.325,3.557,12.882,0l34.926-34.927l-13.196-13.196
	L243.774,469.182z"/>
<path style="fill:#A7AEEE;" d="M420.701,277.34L234.66,91.299l61.418-61.418c3.369-3.369,8.831-3.369,12.2,0l173.841,173.841
	c3.369,3.369,3.369,8.831,0,12.2L420.701,277.34z"/>
<path style="fill:#929DDD;" d="M482.119,203.722l-37.518-37.518c3.369,3.369,3.369,8.831,0,12.2l-61.418,61.418l37.518,37.518
	l61.418-61.418C485.488,212.553,485.488,207.091,482.119,203.722z"/>
<path style="fill:#435256;" d="M174.564,434.022l-96.586-96.586c-3.919-3.919-4.995-9.86-2.698-14.904l27.912-61.306
	l147.582,147.582l-61.306,27.912C184.424,439.017,178.483,437.941,174.564,434.022z"/>
<path style="fill:#334144;" d="M212.878,370.911l-61.306,27.912c-5.045,2.297-10.985,1.221-14.904-2.698l37.897,37.897
	c3.919,3.919,9.86,4.995,14.904,2.698l61.306-27.912L212.878,370.911z"/>
<path style="fill:#DFEAEF;" d="M294.888,460.672l-243.56-243.56c-6.853-6.853-6.853-17.964,0-24.817L197.48,46.143
	c6.853-6.853,17.964-6.853,24.817,0l243.56,243.56c6.853,6.853,6.853,17.964,0,24.817L319.705,460.672
	C312.852,467.525,301.741,467.525,294.888,460.672z"/>
<path style="fill:#BFCFD6;" d="M465.857,289.703l-37.597-37.597c6.853,6.853,6.853,17.964,0,24.817L282.108,423.075
	c-6.853,6.853-17.964,6.853-24.817,0l37.597,37.597c6.853,6.853,17.964,6.853,24.817,0L465.857,314.52
	C472.71,307.666,472.71,296.556,465.857,289.703z"/>
<path style="fill:#435256;" d="M470.271,337.083L174.917,41.729c-3.602-3.602-3.602-9.441,0-13.043l18.369-18.369
	c3.602-3.602,9.441-3.602,13.043,0l295.354,295.354c3.602,3.602,3.602,9.441,0,13.043l-18.369,18.369
	C479.712,340.685,473.872,340.685,470.271,337.083z"/>
<path style="fill:#334144;" d="M501.683,305.671l-37.518-37.518c3.602,3.602,3.602,9.441,0,13.043l-18.369,18.369
	c-3.602,3.602-9.441,3.602-13.042,0l37.518,37.518c3.602,3.602,9.441,3.602,13.042,0l18.369-18.369
	C505.284,315.112,505.284,309.273,501.683,305.671z"/>
<path d="M120.243,190.801c-2.977-2.977-7.804-2.977-10.781,0c-2.978,2.977-2.978,7.804,0,10.781l200.956,200.956
	c1.489,1.488,3.441,2.233,5.391,2.233s3.902-0.745,5.391-2.233c2.977-2.977,2.977-7.804,0-10.781L120.243,190.801z"/>
<path d="M153.724,157.32c-2.977-2.977-7.804-2.977-10.781,0s-2.977,7.804,0,10.781l200.956,200.956
	c1.489,1.489,3.441,2.233,5.391,2.233s3.902-0.744,5.391-2.233c2.977-2.977,2.977-7.804,0-10.781L153.724,157.32z"/>
<path d="M324.075,280.377c1.951,0,3.902-0.744,5.391-2.233c2.977-2.977,2.977-7.804,0-10.781L186.574,124.47
	c-2.977-2.977-7.804-2.977-10.781,0c-2.978,2.977-2.978,7.804,0,10.781l142.892,142.893
	C320.173,279.632,322.125,280.377,324.075,280.377z"/>
<path d="M382.139,338.44c1.951,0,3.902-0.745,5.391-2.233c2.977-2.977,2.977-7.804,0-10.781l-29.312-29.313
	c-2.977-2.977-7.803-2.978-10.782,0c-2.977,2.977-2.977,7.804,0,10.781l29.312,29.313
	C378.237,337.696,380.188,338.44,382.139,338.44z"/>
<path d="M507.074,300.281l-49.266-49.266l29.703-29.702c3.069-3.069,4.76-7.15,4.76-11.491s-1.691-8.422-4.76-11.491L313.669,24.49
	c-3.069-3.069-7.151-4.76-11.491-4.76c-4.342,0-8.423,1.691-11.491,4.76l-29.702,29.702L211.72,4.926
	c-6.568-6.568-17.256-6.569-23.824,0l-18.369,18.369c-3.182,3.182-4.935,7.412-4.935,11.912s1.753,8.73,4.935,11.912l8.098,8.098
	L97.321,135.52c-2.977,2.977-2.977,7.804,0,10.781c2.977,2.978,7.804,2.977,10.781,0l80.303-80.303L446,323.594L314.314,455.281
	c-1.874,1.874-4.366,2.907-7.017,2.907c-2.65,0-5.143-1.032-7.017-2.907L178.498,333.5l-80.114-80.114L56.719,211.72
	c-1.875-1.874-2.907-4.366-2.907-7.017s1.032-5.143,2.907-7.018l22.633-22.633c2.977-2.977,2.977-7.804,0-10.781
	s-7.804-2.977-10.781,0l-22.633,22.632c-4.754,4.754-7.373,11.076-7.373,17.799s2.619,13.045,7.373,17.799l2.715,2.715l-17.98,17.98
	c-3.161,3.161-4.901,7.363-4.901,11.832c0,4.469,1.741,8.671,4.901,11.832l13.509,13.509c3.161,3.161,7.363,4.902,11.832,4.902
	s8.671-1.741,11.832-4.901l17.98-17.98l5.813,5.813l-23.297,51.169c-3.595,7.895-1.889,17.32,4.246,23.454l18.562,18.562l-9.73,9.73
	c-8.347,8.347-8.347,21.929,0,30.277l9.202,9.202L2.233,498.986c-2.977,2.977-2.977,7.804,0,10.781s7.804,2.977,10.782,0
	l88.389-88.389l9.202,9.202c4.174,4.174,9.656,6.261,15.139,6.261c5.482,0,10.965-2.087,15.139-6.261l9.729-9.729l18.562,18.563
	c3.992,3.992,9.38,6.109,14.831,6.109c2.924,0,5.867-0.609,8.623-1.864l51.169-23.297l5.813,5.813l-17.98,17.98
	c-3.161,3.161-4.902,7.363-4.902,11.832s1.74,8.671,4.901,11.832l13.51,13.51c3.161,3.16,7.363,4.9,11.832,4.9
	c4.47,0,8.671-1.741,11.832-4.901l17.98-17.98l2.716,2.716c4.754,4.754,11.075,7.372,17.798,7.372
	c6.724,0,13.046-2.618,17.799-7.373l131.686-131.686l8.098,8.098c3.285,3.284,7.597,4.926,11.912,4.926
	c4.313,0,8.628-1.642,11.913-4.926l18.369-18.37C513.642,317.536,513.642,306.849,507.074,300.281z M57.064,269.589
	c-0.36,0.36-0.77,0.435-1.051,0.435c-0.28,0-0.69-0.075-1.05-0.435l-13.51-13.51c-0.359-0.359-0.435-0.769-0.435-1.05
	s0.075-0.691,0.435-1.051l17.98-17.98l15.61,15.61L57.064,269.589z M130.101,419.799c-2.402,2.402-6.312,2.402-8.715,0
	l-29.185-29.185c-2.402-2.403-2.402-6.311,0-8.714l9.73-9.73l37.899,37.9L130.101,419.799z M186.308,429.781
	c-2.137,0.975-4.692,0.512-6.354-1.15l-18.562-18.562l0,0l-59.462-59.462l0,0l-18.562-18.562c-1.662-1.662-2.124-4.216-1.15-6.355
	l20.932-45.975l129.133,129.134L186.308,429.781z M258.02,470.546c-0.359,0.359-0.769,0.434-1.049,0.434
	c-0.281,0-0.691-0.075-1.05-0.435l-13.509-13.509c-0.36-0.36-0.436-0.77-0.436-1.051c0-0.28,0.075-0.69,0.436-1.05l17.979-17.98
	l15.611,15.61L258.02,470.546z M301.47,35.271c0.388-0.389,1.027-0.391,1.418,0L476.73,209.113c0.195,0.195,0.294,0.433,0.294,0.709
	c0,0.275-0.099,0.514-0.295,0.709l-29.702,29.702l-175.26-175.26L301.47,35.271z M496.292,313.323l-18.368,18.369
	c-0.622,0.623-1.639,0.624-2.261,0.001l-13.489-13.489l0,0L327.985,184.015L180.307,36.338c-0.387-0.387-0.468-0.828-0.468-1.13
	c0-0.302,0.081-0.744,0.469-1.131l18.369-18.369c0.312-0.312,0.721-0.468,1.131-0.468c0.409,0,0.818,0.156,1.13,0.468l49.266,49.266
	l196.823,196.823l49.266,49.266C496.915,311.686,496.915,312.7,496.292,313.323z"/>
<path d="M311.212,65.646l-9.929,9.928c-2.978,2.977-2.978,7.804-0.001,10.781c1.489,1.489,3.44,2.233,5.391,2.233
	s3.902-0.744,5.39-2.233l9.929-9.928c2.978-2.977,2.978-7.804,0.001-10.781C319.016,62.669,314.189,62.668,311.212,65.646z"/>
<path d="M373.392,127.827l-9.929,9.928c-2.978,2.977-2.978,7.804-0.001,10.781c1.489,1.489,3.44,2.233,5.391,2.233
	s3.902-0.744,5.39-2.233l9.929-9.928c2.978-2.977,2.978-7.804,0.001-10.781C381.196,124.85,376.369,124.849,373.392,127.827z"/>
<path d="M446.353,190.008c-2.976-2.978-7.803-2.977-10.781,0l-9.928,9.928c-2.977,2.978-2.977,7.804,0.001,10.781
	c1.488,1.489,3.44,2.233,5.39,2.233s3.902-0.745,5.391-2.233l9.928-9.928C449.331,197.812,449.331,192.985,446.353,190.008z"/>
<g>
</g>
<g>
</g>
<g>
</g>
<g>
</g>
<g>
</g>
<g>
</g>
<g>
</g>
<g>
</g>
<g>
</g>
<g>
</g>
<g>
</g>
<g>
</g>
<g>
</g>
<g>
</g>
<g>
</g>
</svg>
