<?xml version="1.0" encoding="iso-8859-1"?>
<!-- Generator: Adobe Illustrator 19.0.0, SVG Export Plug-In . SVG Version: 6.00 Build 0)  -->
<svg version="1.1" id="Capa_1" xmlns="http://www.w3.org/2000/svg" xmlns:xlink="http://www.w3.org/1999/xlink" x="0px" y="0px"
	 viewBox="0 0 511.968 511.968" style="enable-background:new 0 0 511.968 511.968;" xml:space="preserve">
<rect x="3.994" y="43.994" style="fill:#CCD1D9;" width="455.97" height="455.97"/>
<path style="fill:#A0D468;" d="M411.974,451.972H51.996V187.988c4.398,0,8-3.601,8-7.999s-3.602-8-8-8V91.994h359.978v79.995
	c-4.398,0-8,3.602-8,8s3.602,7.999,8,7.999V451.972z M371.976,387.976V155.99c0-13.198-10.796-23.998-23.998-23.998H115.992
	c-13.198,0-23.998,10.8-23.998,23.998v231.986c0,13.202,10.8,23.998,23.998,23.998h79.995c4.398,0,8-3.602,8-7.999v-15.999h55.996
	v15.999c0,4.397,3.602,7.999,8,7.999h79.995C361.18,411.974,371.976,401.178,371.976,387.976z"/>
<g>
	<path style="fill:#3A3847;" d="M68.233,111.993c-2.207,0-4.038-1.789-4.038-4c0-2.21,1.75-3.999,3.96-3.999h0.078
		c2.211,0,4,1.789,4,3.999C72.233,110.204,70.444,111.993,68.233,111.993z"/>
	<path style="fill:#3A3847;" d="M396.21,111.993c-2.203,0-4.031-1.789-4.031-4c0-2.21,1.75-3.999,3.953-3.999h0.078
		c2.218,0,3.999,1.789,3.999,3.999C400.209,110.204,398.427,111.993,396.21,111.993z"/>
	<path style="fill:#3A3847;" d="M276.216,111.993c-2.203,0-4.031-1.789-4.031-4c0-2.21,1.75-3.999,3.953-3.999h0.078
		c2.219,0,4,1.789,4,3.999C280.216,110.204,278.435,111.993,276.216,111.993z"/>
	<path style="fill:#3A3847;" d="M236.223,111.993c-2.207,0-4.039-1.789-4.039-4c0-2.21,1.75-3.999,3.961-3.999h0.078
		c2.211,0,4,1.789,4,3.999C240.223,110.204,238.434,111.993,236.223,111.993z"/>
	<path style="fill:#3A3847;" d="M316.214,111.993c-2.203,0-4.031-1.789-4.031-4c0-2.21,1.75-3.999,3.953-3.999h0.078
		c2.219,0,4,1.789,4,3.999C320.214,110.204,318.433,111.993,316.214,111.993z"/>
	<path style="fill:#3A3847;" d="M268.217,119.993c-2.203,0-4.031-1.789-4.031-4s1.75-4,3.953-4h0.078c2.218,0,3.999,1.789,3.999,4
		S270.435,119.993,268.217,119.993z"/>
	<path style="fill:#3A3847;" d="M228.223,119.993c-2.207,0-4.038-1.789-4.038-4s1.75-4,3.96-4h0.078c2.211,0,4,1.789,4,4
		S230.434,119.993,228.223,119.993z"/>
	<path style="fill:#3A3847;" d="M308.214,119.993c-2.203,0-4.031-1.789-4.031-4s1.75-4,3.953-4h0.078c2.219,0,4,1.789,4,4
		S310.433,119.993,308.214,119.993z"/>
	<path style="fill:#3A3847;" d="M396.21,351.978c-2.203,0-4.031-1.789-4.031-4s1.75-4,3.953-4h0.078c2.218,0,3.999,1.789,3.999,4
		S398.427,351.978,396.21,351.978z"/>
	<path style="fill:#3A3847;" d="M396.21,439.972c-2.203,0-4.031-1.789-4.031-3.999c0-2.211,1.75-4,3.953-4h0.078
		c2.218,0,3.999,1.789,3.999,4C400.209,438.183,398.427,439.972,396.21,439.972z"/>
	<path style="fill:#3A3847;" d="M396.21,335.979c-2.203,0-4.031-1.789-4.031-4c0-2.21,1.75-3.999,3.953-3.999h0.078
		c2.218,0,3.999,1.789,3.999,3.999C400.209,334.19,398.427,335.979,396.21,335.979z"/>
	<path style="fill:#3A3847;" d="M396.21,319.98c-2.203,0-4.031-1.789-4.031-4s1.75-4,3.953-4h0.078c2.218,0,3.999,1.789,3.999,4
		S398.427,319.98,396.21,319.98z"/>
	<path style="fill:#3A3847;" d="M396.21,303.981c-2.203,0-4.031-1.789-4.031-4c0-2.21,1.75-3.999,3.953-3.999h0.078
		c2.218,0,3.999,1.789,3.999,3.999C400.209,302.192,398.427,303.981,396.21,303.981z"/>
	<path style="fill:#3A3847;" d="M396.21,287.982c-2.203,0-4.031-1.789-4.031-4s1.75-4,3.953-4h0.078c2.218,0,3.999,1.789,3.999,4
		S398.427,287.982,396.21,287.982z"/>
	<path style="fill:#3A3847;" d="M396.21,271.983c-2.203,0-4.031-1.789-4.031-4c0-2.21,1.75-3.999,3.953-3.999h0.078
		c2.218,0,3.999,1.789,3.999,3.999C400.209,270.194,398.427,271.983,396.21,271.983z"/>
	<path style="fill:#3A3847;" d="M68.233,311.98c-2.207,0-4.038-1.789-4.038-3.999c0-2.211,1.75-4,3.96-4h0.078c2.211,0,4,1.789,4,4
		C72.233,310.191,70.444,311.98,68.233,311.98z"/>
	<path style="fill:#3A3847;" d="M68.233,295.982c-2.207,0-4.038-1.789-4.038-4s1.75-4,3.96-4h0.078c2.211,0,4,1.789,4,4
		S70.444,295.982,68.233,295.982z"/>
	<path style="fill:#3A3847;" d="M68.233,279.982c-2.207,0-4.038-1.789-4.038-3.999c0-2.211,1.75-4,3.96-4h0.078c2.211,0,4,1.789,4,4
		C72.233,278.193,70.444,279.982,68.233,279.982z"/>
	<path style="fill:#3A3847;" d="M68.233,263.984c-2.207,0-4.038-1.789-4.038-4s1.75-4,3.96-4h0.078c2.211,0,4,1.789,4,4
		S70.444,263.984,68.233,263.984z"/>
	<path style="fill:#3A3847;" d="M68.233,247.985c-2.207,0-4.038-1.789-4.038-4s1.75-4,3.96-4h0.078c2.211,0,4,1.789,4,4
		S70.444,247.985,68.233,247.985z"/>
	<path style="fill:#3A3847;" d="M396.21,255.984c-2.203,0-4.031-1.789-4.031-4c0-2.21,1.75-3.999,3.953-3.999h0.078
		c2.218,0,3.999,1.789,3.999,3.999C400.209,254.195,398.427,255.984,396.21,255.984z"/>
	<path style="fill:#3A3847;" d="M396.21,239.985c-2.203,0-4.031-1.789-4.031-4c0-2.21,1.75-3.999,3.953-3.999h0.078
		c2.218,0,3.999,1.789,3.999,3.999C400.209,238.196,398.427,239.985,396.21,239.985z"/>
	<path style="fill:#3A3847;" d="M396.21,223.986c-2.203,0-4.031-1.789-4.031-4c0-2.21,1.75-3.999,3.953-3.999h0.078
		c2.218,0,3.999,1.789,3.999,3.999C400.209,222.197,398.427,223.986,396.21,223.986z"/>
	<path style="fill:#3A3847;" d="M68.233,415.974c-2.207,0-4.038-1.789-4.038-4s1.75-4,3.96-4h0.078c2.211,0,4,1.789,4,4
		S70.444,415.974,68.233,415.974z"/>
	<path style="fill:#3A3847;" d="M68.233,399.975c-2.207,0-4.038-1.789-4.038-4c0-2.21,1.75-3.999,3.96-3.999h0.078
		c2.211,0,4,1.789,4,3.999C72.233,398.186,70.444,399.975,68.233,399.975z"/>
	<path style="fill:#3A3847;" d="M92.232,439.972c-2.207,0-4.039-1.789-4.039-3.999c0-2.211,1.75-4,3.961-4h0.078
		c2.211,0,4,1.789,4,4C96.232,438.183,94.443,439.972,92.232,439.972z"/>
	<path style="fill:#3A3847;" d="M108.231,439.972c-2.207,0-4.039-1.789-4.039-3.999c0-2.211,1.75-4,3.961-4h0.078
		c2.211,0,4,1.789,4,4C112.231,438.183,110.442,439.972,108.231,439.972z"/>
	<path style="fill:#3A3847;" d="M164.227,439.972c-2.207,0-4.038-1.789-4.038-3.999c0-2.211,1.75-4,3.96-4h0.078
		c2.211,0,4,1.789,4,4C168.227,438.183,166.438,439.972,164.227,439.972z"/>
	<path style="fill:#3A3847;" d="M180.226,439.972c-2.207,0-4.038-1.789-4.038-3.999c0-2.211,1.75-4,3.96-4h0.078
		c2.211,0,4,1.789,4,4C184.226,438.183,182.437,439.972,180.226,439.972z"/>
	<path style="fill:#3A3847;" d="M196.225,439.972c-2.207,0-4.038-1.789-4.038-3.999c0-2.211,1.75-4,3.96-4h0.078
		c2.211,0,4,1.789,4,4C200.225,438.183,198.436,439.972,196.225,439.972z"/>
	<path style="fill:#3A3847;" d="M212.224,439.972c-2.207,0-4.038-1.789-4.038-3.999c0-2.211,1.75-4,3.96-4h0.078
		c2.211,0,4,1.789,4,4C216.224,438.183,214.435,439.972,212.224,439.972z"/>
	<path style="fill:#3A3847;" d="M228.223,439.972c-2.207,0-4.038-1.789-4.038-3.999c0-2.211,1.75-4,3.96-4h0.078
		c2.211,0,4,1.789,4,4C232.223,438.183,230.434,439.972,228.223,439.972z"/>
	<path style="fill:#3A3847;" d="M244.222,439.972c-2.207,0-4.038-1.789-4.038-3.999c0-2.211,1.75-4,3.96-4h0.078
		c2.211,0,4,1.789,4,4C248.222,438.183,246.433,439.972,244.222,439.972z"/>
	<path style="fill:#3A3847;" d="M260.221,439.972c-2.207,0-4.038-1.789-4.038-3.999c0-2.211,1.75-4,3.96-4h0.078
		c2.211,0,3.996,1.789,3.996,4C264.217,438.183,262.432,439.972,260.221,439.972z"/>
	<path style="fill:#3A3847;" d="M276.216,439.972c-2.203,0-4.031-1.789-4.031-3.999c0-2.211,1.75-4,3.953-4h0.078
		c2.219,0,4,1.789,4,4C280.216,438.183,278.435,439.972,276.216,439.972z"/>
	<path style="fill:#3A3847;" d="M292.215,439.972c-2.203,0-4.03-1.789-4.03-3.999c0-2.211,1.75-4,3.952-4h0.078c2.219,0,4,1.789,4,4
		C296.215,438.183,294.434,439.972,292.215,439.972z"/>
	<path style="fill:#3A3847;" d="M308.214,439.972c-2.203,0-4.031-1.789-4.031-3.999c0-2.211,1.75-4,3.953-4h0.078
		c2.219,0,4,1.789,4,4C312.214,438.183,310.433,439.972,308.214,439.972z"/>
</g>
<polygon style="fill:#E6E9ED;" points="347.978,155.99 347.978,387.976 259.983,387.976 203.987,387.976 115.992,387.976 
	115.992,155.99 "/>
<path style="fill:#CCD1D9;" d="M195.987,411.974h-79.995c-13.198,0-23.998-10.796-23.998-23.998V155.99
	c0-13.198,10.8-23.998,23.998-23.998h231.986c13.202,0,23.998,10.8,23.998,23.998v231.986c0,13.202-10.796,23.998-23.998,23.998
	h-79.995c-4.398,0-8-3.602-8-7.999v-15.999h87.995V155.99H115.992v231.986h87.995v15.999
	C203.987,408.373,200.385,411.974,195.987,411.974z"/>
<g style="opacity:0.7;">
	<path style="fill:#FFFFFF;" d="M99.993,387.976V155.99c0-13.198,10.801-23.998,23.999-23.998h-8
		c-13.198,0-23.998,10.8-23.998,23.998v231.986c0,13.202,10.8,23.998,23.998,23.998h8
		C110.794,411.974,99.993,401.178,99.993,387.976z"/>
</g>
<g style="opacity:0.2;">
	<path d="M363.977,155.99v231.986c0,13.194-10.796,23.998-23.999,23.998h8c13.202,0,23.998-10.804,23.998-23.998V155.99
		c0-13.202-10.796-23.998-23.998-23.998h-8C353.181,131.992,363.977,142.788,363.977,155.99z"/>
</g>
<g style="opacity:0.7;">
	<rect x="3.994" y="43.994" style="fill:#FFFFFF;" width="15.999" height="455.97"/>
</g>
<g style="opacity:0.2;">
	<rect x="443.974" y="43.994" width="15.999" height="455.97"/>
</g>
<polygon style="fill:#FFCE54;" points="51.996,419.974 51.996,451.972 83.994,451.972 "/>
<g style="opacity:0.5;">
	<path style="fill:#FFFFFF;" d="M51.996,187.988v263.984h8V179.989C59.996,184.407,56.414,187.988,51.996,187.988z"/>
</g>
<g style="opacity:0.5;">
	<path style="fill:#FFFFFF;" d="M51.996,91.994v79.995c4.418,0,8,3.582,8,8V91.994H51.996z"/>
</g>
<g style="opacity:0.3;">
	<path style="opacity:0.7;enable-background:new    ;" d="M411.974,187.988v263.984h-8V179.989
		C403.974,184.407,407.552,187.988,411.974,187.988z"/>
	<path style="opacity:0.7;enable-background:new    ;" d="M411.974,91.994v79.995c-4.422,0-8,3.582-8,8V91.994H411.974z"/>
</g>
<rect x="115.994" y="155.994" style="fill:#FFFFFF;" width="8" height="231.99"/>
<g style="opacity:0.2;">
	<rect x="339.974" y="155.994" width="8" height="231.99"/>
</g>
<path style="fill:#FFCE54;" d="M275.982,271.983c0,24.304-19.697,43.997-43.997,43.997c-24.299,0-43.997-19.693-43.997-43.997
	c0-24.295,19.698-43.997,43.997-43.997C256.285,227.986,275.982,247.688,275.982,271.983z"/>
<g style="opacity:0.5;">
	<path style="fill:#FFFFFF;" d="M195.987,271.983c0-22.943,17.577-41.771,39.998-43.794c-1.32-0.121-2.648-0.203-4-0.203
		c-24.299,0-43.997,19.702-43.997,43.997c0,24.304,19.698,43.997,43.997,43.997c1.352,0,2.68-0.086,4-0.203
		C213.564,313.754,195.987,294.935,195.987,271.983z"/>
</g>
<g style="opacity:0.2;">
	<path d="M267.983,271.983c0,22.944-17.577,41.771-39.998,43.794c1.32,0.117,2.648,0.203,4,0.203
		c24.3,0,43.997-19.701,43.997-43.997c0-24.303-19.697-43.997-43.997-43.997c-1.352,0-2.68,0.086-4,0.203
		C250.406,230.213,267.983,249.032,267.983,271.983z"/>
</g>
<g>
	<path style="fill:#3A3847;" d="M203.983,309.903c-0.891,0-1.789-0.297-2.531-0.906c-11.097-9.094-17.464-22.585-17.464-37.014
		c0-24.955,18.757-45.513,43.626-47.821c1.598-0.098,2.941-0.176,4.371-0.176c2.211,0,4,1.789,4,4s-1.789,4-4,4
		c-1.266,0-2.457,0.074-3.719,0.152c-20.643,1.913-36.278,19.049-36.278,39.845c0,12.022,5.296,23.257,14.534,30.826
		c1.707,1.398,1.957,3.922,0.559,5.633C206.292,309.403,205.143,309.903,203.983,309.903z"/>
	<path style="fill:#3A3847;" d="M231.985,319.98c-2.211,0-4-1.789-4-4s1.789-4,4-4c22.054,0,39.997-17.943,39.997-39.997
		c0-11.995-5.304-23.264-14.549-30.916c-1.703-1.41-1.938-3.93-0.531-5.633c1.413-1.694,3.929-1.937,5.632-0.531
		c11.089,9.176,17.448,22.69,17.448,37.08C279.982,298.45,258.452,319.98,231.985,319.98z"/>
	<path style="fill:#3A3847;" d="M243.984,287.982c-1.023,0-2.046-0.391-2.827-1.172l-23.999-23.998
		c-1.563-1.563-1.563-4.094,0-5.656c1.563-1.562,4.094-1.563,5.656,0l23.998,23.998c1.563,1.563,1.563,4.094,0,5.656
		C246.031,287.591,245.007,287.982,243.984,287.982z"/>
	<path style="fill:#3A3847;" d="M219.986,263.984c-1.023,0-2.047-0.391-2.828-1.172c-1.563-1.563-1.563-4.094,0-5.656l55.996-55.996
		c1.563-1.563,4.094-1.563,5.656,0c1.563,1.562,1.563,4.093,0,5.655l-55.996,55.997
		C222.033,263.593,221.009,263.984,219.986,263.984z"/>
	<path style="fill:#3A3847;" d="M187.988,343.978c-1.023,0-2.047-0.391-2.828-1.172c-1.563-1.562-1.563-4.093,0-5.655l55.997-55.997
		c1.562-1.563,4.093-1.563,5.655,0s1.563,4.094,0,5.656l-55.996,55.996C190.035,343.588,189.011,343.978,187.988,343.978z"/>
	<path style="fill:#3A3847;" d="M459.971,503.968H3.999c-2.21,0-3.999-1.789-3.999-3.999c0-2.211,1.789-4,3.999-4h455.973
		c2.21,0,3.999,1.789,3.999,4C463.97,502.179,462.181,503.968,459.971,503.968z"/>
	<path style="fill:#3A3847;" d="M459.971,47.997H3.999c-2.21,0-3.999-1.789-3.999-4c0-2.21,1.789-3.999,3.999-3.999h455.973
		c2.21,0,3.999,1.789,3.999,3.999C463.97,46.208,462.181,47.997,459.971,47.997z"/>
	<path style="fill:#3A3847;" d="M411.974,455.972H51.996c-2.21,0-3.999-1.789-3.999-4s1.789-4,3.999-4h359.978c2.211,0,4,1.789,4,4
		S414.185,455.972,411.974,455.972z"/>
	<path style="fill:#3A3847;" d="M411.974,95.994H51.996c-2.21,0-3.999-1.789-3.999-4c0-2.21,1.789-3.999,3.999-3.999h359.978
		c2.211,0,4,1.789,4,3.999C415.974,94.205,414.185,95.994,411.974,95.994z"/>
	<path style="fill:#3A3847;" d="M347.978,415.974c-2.211,0-4-1.789-4-4s1.789-4,4-4c11.03,0,19.998-8.968,19.998-19.998V155.99
		c0-11.026-8.968-19.998-19.998-19.998H115.992c-11.026,0-19.998,8.972-19.998,19.998v231.986c0,11.03,8.972,19.998,19.998,19.998
		c2.211,0,4,1.789,4,4s-1.789,4-4,4c-15.437,0-27.998-12.562-27.998-27.998V155.99c0-15.437,12.562-27.998,27.998-27.998h231.986
		c15.437,0,27.998,12.562,27.998,27.998v231.986C375.976,403.413,363.415,415.974,347.978,415.974z"/>
	<path style="fill:#3A3847;" d="M459.971,503.968c-2.211,0-4-1.789-4-3.999V43.997c0-2.21,1.789-3.999,4-3.999
		c2.21,0,3.999,1.789,3.999,3.999V499.97C463.97,502.179,462.181,503.968,459.971,503.968z"/>
	<path style="fill:#3A3847;" d="M3.999,503.968c-2.21,0-3.999-1.789-3.999-3.999V43.997c0-2.21,1.789-3.999,3.999-3.999
		c2.211,0,4,1.789,4,3.999V499.97C7.999,502.179,6.21,503.968,3.999,503.968z"/>
	<path style="fill:#3A3847;" d="M19.998,47.997c-2.21,0-3.999-1.789-3.999-4V11.999c0-2.21,1.789-3.999,3.999-3.999
		c2.211,0,4,1.789,4,3.999v31.998C23.998,46.208,22.209,47.997,19.998,47.997z"/>
	<path style="fill:#3A3847;" d="M123.992,47.997c-2.211,0-4-1.789-4-4V11.999c0-2.21,1.789-3.999,4-3.999s4,1.789,4,3.999v31.998
		C127.992,46.208,126.203,47.997,123.992,47.997z"/>
	<path style="fill:#3A3847;" d="M107.993,23.999H35.997c-2.21,0-3.999-1.789-3.999-4s1.789-4,3.999-4h71.996c2.211,0,4,1.789,4,4
		S110.204,23.999,107.993,23.999z"/>
	<path style="fill:#3A3847;" d="M339.978,47.997c-2.211,0-4-1.789-4-4V11.999c0-2.21,1.789-3.999,4-3.999s4,1.789,4,3.999v31.998
		C343.978,46.208,342.189,47.997,339.978,47.997z"/>
	<path style="fill:#3A3847;" d="M443.972,47.997c-2.211,0-4-1.789-4-4V11.999c0-2.21,1.789-3.999,4-3.999s4,1.789,4,3.999v31.998
		C447.972,46.208,446.183,47.997,443.972,47.997z"/>
	<path style="fill:#3A3847;" d="M427.973,23.999h-71.996c-2.21,0-3.999-1.789-3.999-4s1.789-4,3.999-4h71.996
		c2.21,0,3.999,1.789,3.999,4S430.183,23.999,427.973,23.999z"/>
	<path style="fill:#3A3847;" d="M323.979,31.998H139.991c-2.211,0-4-1.789-4-4c0-2.21,1.789-3.999,4-3.999h183.988
		c2.211,0,4,1.789,4,3.999C327.979,30.209,326.19,31.998,323.979,31.998z"/>
	<path style="fill:#3A3847;" d="M467.97,23.999h-7.999c-2.211,0-4-1.789-4-4s1.789-4,4-4h7.999c2.211,0,4,1.789,4,4
		S470.181,23.999,467.97,23.999z"/>
	<path style="fill:#3A3847;" d="M475.97,375.976c-2.211,0-4-1.789-4-3.999V27.998c0-2.21,1.789-3.999,4-3.999s4,1.789,4,3.999
		v343.979C479.97,374.187,478.181,375.976,475.97,375.976z"/>
	<path style="fill:#3A3847;" d="M507.968,431.973c-2.211,0-4-1.789-4-4c0-25.771-9.172-30.912-18.03-35.88
		c-6.546-3.672-13.968-7.836-13.968-20.116c0-2.211,1.789-4,4-4s4,1.789,4,4c0,7.601,3.718,9.679,9.874,13.132
		c9.343,5.234,22.124,12.405,22.124,42.864C511.968,430.184,510.179,431.973,507.968,431.973z"/>
	<path style="fill:#3A3847;" d="M475.97,503.968c-0.766,0-1.531-0.219-2.219-0.672c-1.836-1.227-2.336-3.71-1.109-5.546
		c0.313-0.469,31.326-47.263,31.326-69.777c0-2.21,1.789-3.999,4-3.999s4,1.789,4,3.999c0,24.921-31.334,72.215-32.67,74.214
		C478.533,503.343,477.259,503.968,475.97,503.968z"/>
	<path style="fill:#3A3847;" d="M475.97,31.998c-2.211,0-4-1.789-4-4c0-2.206-1.797-3.999-4-3.999c-2.211,0-4-1.789-4-4s1.789-4,4-4
		c6.617,0,12,5.383,12,11.999C479.97,30.209,478.181,31.998,475.97,31.998z"/>
	<path style="fill:#3A3847;" d="M75.995,447.972c-1.023,0-2.047-0.391-2.828-1.172l-15.999-15.999c-1.563-1.563-1.563-4.094,0-5.655
		c1.563-1.563,4.094-1.563,5.656,0l15.999,15.998c1.563,1.563,1.563,4.094,0,5.656C78.042,447.582,77.018,447.972,75.995,447.972z"
		/>
	<path style="fill:#3A3847;" d="M347.978,391.976H115.992c-2.21,0-3.999-1.789-3.999-4V155.99c0-2.21,1.789-3.999,3.999-3.999
		h231.986c2.211,0,4,1.789,4,3.999v231.986C351.978,390.187,350.189,391.976,347.978,391.976z M119.992,383.976h223.986V159.99
		H119.992V383.976z"/>
	<path style="fill:#3A3847;" d="M195.987,415.974h-79.995c-2.21,0-3.999-1.789-3.999-4s1.789-4,3.999-4h79.995c2.211,0,4,1.789,4,4
		S198.198,415.974,195.987,415.974z"/>
	<path style="fill:#3A3847;" d="M195.987,415.974c-2.21,0-3.999-1.789-3.999-4s1.789-4,3.999-4c2.207,0,4-1.797,4-3.999
		c0-2.211,1.789-4,4-4s4,1.789,4,4C207.987,410.591,202.604,415.974,195.987,415.974z"/>
	<path style="fill:#3A3847;" d="M347.978,415.974h-79.995c-2.211,0-4-1.789-4-4s1.789-4,4-4h79.995c2.211,0,4,1.789,4,4
		S350.189,415.974,347.978,415.974z"/>
	<path style="fill:#3A3847;" d="M267.983,415.974c-6.617,0-11.999-5.383-11.999-11.999c0-2.211,1.789-4,3.999-4c2.211,0,4,1.789,4,4
		c0,2.202,1.797,3.999,4,3.999c2.21,0,3.999,1.789,3.999,4S270.193,415.974,267.983,415.974z"/>
	<path style="fill:#3A3847;" d="M51.996,191.988c-2.21,0-3.999-1.789-3.999-4c0-2.21,1.789-3.999,3.999-3.999c2.207,0,4-1.793,4-4
		s-1.793-4-4-4c-2.21,0-3.999-1.789-3.999-4c0-2.21,1.789-3.999,3.999-3.999c6.617,0,12,5.382,12,11.999
		C63.996,186.605,58.613,191.988,51.996,191.988z"/>
	<path style="fill:#3A3847;" d="M51.996,175.989c-2.21,0-3.999-1.789-3.999-4V91.994c0-2.21,1.789-3.999,3.999-3.999
		c2.211,0,4,1.789,4,3.999v79.995C55.996,174.2,54.207,175.989,51.996,175.989z"/>
	<path style="fill:#3A3847;" d="M51.996,455.972c-2.21,0-3.999-1.789-3.999-4V187.988c0-2.21,1.789-3.999,3.999-3.999
		c2.211,0,4,1.789,4,3.999v263.984C55.996,454.183,54.207,455.972,51.996,455.972z"/>
	<path style="fill:#3A3847;" d="M411.974,191.988c-6.617,0-12-5.383-12-11.999c0-6.617,5.383-11.999,12-11.999
		c2.211,0,4,1.789,4,3.999c0,2.211-1.789,4-4,4c-2.203,0-4,1.793-4,4s1.797,4,4,4c2.211,0,4,1.789,4,3.999
		C415.974,190.199,414.185,191.988,411.974,191.988z"/>
	<path style="fill:#3A3847;" d="M411.974,175.989c-2.211,0-4-1.789-4-4V91.994c0-2.21,1.789-3.999,4-3.999s4,1.789,4,3.999v79.995
		C415.974,174.2,414.185,175.989,411.974,175.989z"/>
	<path style="fill:#3A3847;" d="M411.974,455.972c-2.211,0-4-1.789-4-4V187.988c0-2.21,1.789-3.999,4-3.999s4,1.789,4,3.999v263.984
		C415.974,454.183,414.185,455.972,411.974,455.972z"/>
</g>
<g>
</g>
<g>
</g>
<g>
</g>
<g>
</g>
<g>
</g>
<g>
</g>
<g>
</g>
<g>
</g>
<g>
</g>
<g>
</g>
<g>
</g>
<g>
</g>
<g>
</g>
<g>
</g>
<g>
</g>
</svg>
