<?xml version="1.0" encoding="iso-8859-1"?>
<!-- Generator: Adobe Illustrator 19.0.0, SVG Export Plug-In . SVG Version: 6.00 Build 0)  -->
<svg version="1.1" id="Layer_1" xmlns="http://www.w3.org/2000/svg" xmlns:xlink="http://www.w3.org/1999/xlink" x="0px" y="0px"
	 viewBox="0 0 508 508" style="enable-background:new 0 0 508 508;" xml:space="preserve">
<circle style="fill:#90DFAA;" cx="254" cy="254" r="254"/>
<path style="fill:#2C9984;" d="M56,413.2c46.8,58,118,94.8,198,94.8s151.2-36.8,198-94.8H56z"/>
<path style="fill:#FFFFFF;" d="M361.2,292.8c-0.8-4-2.4-7.6-4.4-10.8l2.8-4.4l-6.8-6.8l-4.4,2.8c-2.8-2-6.4-3.6-10.4-4.4l-0.8-5.2
	h-9.6l-0.8,5.2c-4,0.8-7.6,2.4-10.8,4.4l-4.4-2.8l-6.8,6.8l2.8,4.4c-2,3.2-3.6,6.8-4.4,10.8l-5.2,0.8v9.6l5.2,0.8
	c0.8,4,2.4,7.6,4.4,10.8l-2.8,4.4l6.8,6.8l4.4-2.8c3.2,2.4,6.8,3.6,10.8,4.4l0.8,5.2h9.6l0.8-5.2c4-0.8,7.6-2.4,10.8-4.4l4.4,2.8
	l6.8-6.8l-2.8-4.4c2-3.2,3.6-6.8,4.4-10.8l5.2-0.8v-9.6L361.2,292.8z M332,313.6c-8.4,0-15.2-6.8-15.2-15.2
	c0-8.4,6.8-15.2,15.2-15.2c8.4,0,15.2,6.8,15.2,15.2C347.2,306.8,340.4,313.6,332,313.6z"/>
<circle style="fill:#324A5E;" cx="332" cy="129.2" r="26.8"/>
<circle style="fill:#ACB3BA;" cx="332" cy="129.2" r="14.4"/>
<path style="fill:#2B3B4E;" d="M338,155.2v30h-12v-30c2,0.4,4,0.8,6,0.8S336,155.6,338,155.2z"/>
<path style="fill:#324A5E;" d="M351.6,194h-39.2l0,0c0-4.8,3.6-8.4,8.4-8.4h22.4C348,185.6,351.6,189.2,351.6,194L351.6,194z"/>
<g>
	<polygon style="fill:#2B3B4E;" points="394.8,230 371.2,194 371.2,194 371.2,194 292.8,194 292.8,194 292.8,194 269.6,230 
		304.8,278.4 282.4,229.2 302.8,209.6 361.6,209.6 382,229.2 359.2,278.4 	"/>
	<path style="fill:#2B3B4E;" d="M147.2,200.8c1.2-15.2-7.2-30.4-22-37.2c-1.2-0.4-2.4-0.8-3.6-1.2l186-43.2c-1.2,3.2-2,6.4-2,10
		c0,7.6,3.2,14.4,8.4,19.2L147.2,200.8z"/>
	<path style="fill:#2B3B4E;" d="M193.6,324.4c-9.2-8-21.2-12.8-34-12.8c-17.6,0-33.2,8.8-42.8,22L86,225.2c2.8,2.4,5.6,4.4,9.2,5.6
		c16.4,7.2,35.2,1.6,45.2-12.8L193.6,324.4z"/>
</g>
<path style="fill:#324A5E;" d="M159.6,311.6L159.6,311.6c-28.8,0-52.4,23.2-52.4,52.4v49.2h104.4V364
	C212,335.2,188.4,311.6,159.6,311.6z"/>
<circle style="fill:#ACB3BA;" cx="159.6" cy="362.4" r="25.6"/>
<circle style="fill:#324A5E;" cx="110.4" cy="197.6" r="36.8"/>
<circle style="fill:#ACB3BA;" cx="110.4" cy="197.6" r="20"/>
<g>
</g>
<g>
</g>
<g>
</g>
<g>
</g>
<g>
</g>
<g>
</g>
<g>
</g>
<g>
</g>
<g>
</g>
<g>
</g>
<g>
</g>
<g>
</g>
<g>
</g>
<g>
</g>
<g>
</g>
</svg>
